<svg xmlns="http://www.w3.org/2000/svg" viewBox="0 0 128 128" role="img" aria-label="Magic Swordsman">
  <defs>
    <radialGradient id="aura" cx="50%" cy="38%" r="64%">
      <stop offset="0" stop-color="#a29bfe" stop-opacity=".65"/>
      <stop offset=".45" stop-color="#6c5ce7" stop-opacity=".28"/>
      <stop offset="1" stop-color="#0b1118" stop-opacity="0"/>
    </radialGradient>
    <linearGradient id="armor" x1="24" x2="104" y1="28" y2="108">
      <stop stop-color="#a29bfe"/>
      <stop offset=".45" stop-color="#6c5ce7"/>
      <stop offset="1" stop-color="#2d1f6e"/>
    </linearGradient>
    <linearGradient id="gold" x1="26" y1="24" x2="102" y2="98">
      <stop stop-color="#fff0a8"/>
      <stop offset="1" stop-color="#d69b26"/>
    </linearGradient>
    <filter id="shadow" x="-20%" y="-20%" width="140%" height="150%">
      <feDropShadow dx="0" dy="7" stdDeviation="5" flood-color="#000" flood-opacity=".42"/>
    </filter>
  </defs>
  <ellipse cx="64" cy="72" rx="48" ry="44" fill="url(#aura)"/>
  <g filter="url(#shadow)" stroke-linecap="round" stroke-linejoin="round">
    <path d="M68 15l33 25-12 63-25 14-25-14-12-63z" fill="url(#armor)" stroke="#1a1040" stroke-width="4"/>
    <path d="M68 15l21 16-8 15-14 6-15-7-7-15z" fill="#a29bfe" stroke="#2d1f6e" stroke-width="4"/>
    <path d="M64 28l8 8-8 46-8-8z" fill="#fd79a8" stroke="#4a2d8a" stroke-width="2"/>
    <circle cx="64" cy="30" r="5" fill="#f0f0ff" stroke="#a29bfe" stroke-width="2"/>
    <path d="M38 62l26-14 26 14-6 29-20 12-20-12z" fill="#4a2d8a" stroke="#1a1040" stroke-width="3"/>
    <path d="M48 61l16 9 16-9M64 70v31" fill="none" stroke="#a29bfe" stroke-opacity=".55" stroke-width="3"/>
    <path d="M25 32l-9 49 11 8 12-43z" fill="url(#gold)" stroke="#6c5ce7" stroke-width="4"/>
    <path d="M102 22l8 7-38 54-8-7z" fill="url(#gold)" stroke="#6c5ce7" stroke-width="3"/>
    <path d="M107 18l8 8M69 80l11 10" stroke="#f0f0ff" stroke-width="4"/>
    <circle cx="64" cy="22" r="7" fill="#fd79a8" stroke="#f0f0ff" stroke-width="2"/>
    <circle cx="48" cy="14" r="3" fill="#a29bfe" opacity=".7"/>
    <circle cx="80" cy="14" r="3" fill="#a29bfe" opacity=".7"/>
    <circle cx="56" cy="10" r="2.5" fill="#fd79a8" opacity=".5"/>
    <circle cx="72" cy="10" r="2.5" fill="#fd79a8" opacity=".5"/>
    <circle cx="64" cy="8" r="2" fill="#f0f0ff" opacity=".4"/>
  </g>
</svg>
